<mxfile host="app.diagrams.net" modified="2021-09-30T19:53:39.105Z" agent="5.0 (Windows NT 6.1; Win64; x64) AppleWebKit/537.36 (KHTML, like Gecko) Chrome/93.0.4577.82 Safari/537.36 OPR/79.0.4143.50" etag="NhRHopH1_mKM_v--96Ny" version="15.4.0" type="github">
  <diagram name="schema" id="b5b7bab2-c9e2-2cf4-8b2a-24fd1a2a6d21">
    <mxGraphModel dx="3076" dy="1933" grid="1" gridSize="10" guides="1" tooltips="1" connect="1" arrows="1" fold="1" page="1" pageScale="1" pageWidth="827" pageHeight="1169" background="none" math="0" shadow="0">
      <root>
        <mxCell id="0" />
        <mxCell id="1" parent="0" />
        <mxCell id="6e0c8c40b5770093-73" value="L8" style="text;html=1;align=left;verticalAlign=top;spacingTop=-4;fontSize=10;fontFamily=Verdana" parent="1" vertex="1">
          <mxGeometry x="180" y="40" width="130" height="20" as="geometry" />
        </mxCell>
        <mxCell id="KYpOYc-SYpL99tiq2sUf-9" style="edgeStyle=orthogonalEdgeStyle;rounded=0;orthogonalLoop=1;jettySize=auto;html=1;entryX=0;entryY=0.888;entryDx=0;entryDy=0;entryPerimeter=0;" edge="1" parent="1" source="KYpOYc-SYpL99tiq2sUf-1" target="KYpOYc-SYpL99tiq2sUf-7">
          <mxGeometry relative="1" as="geometry">
            <Array as="points">
              <mxPoint x="-1240" y="-169" />
            </Array>
          </mxGeometry>
        </mxCell>
        <mxCell id="KYpOYc-SYpL99tiq2sUf-1" value="SLC5/05 eth" style="rounded=0;whiteSpace=wrap;html=1;fillColor=#e1d5e7;strokeColor=#9673a6;" vertex="1" parent="1">
          <mxGeometry x="-1400" y="-240" width="200" height="40" as="geometry" />
        </mxCell>
        <mxCell id="KYpOYc-SYpL99tiq2sUf-2" value="" style="rounded=0;whiteSpace=wrap;html=1;fillColor=#d5e8d4;strokeColor=#82b366;" vertex="1" parent="1">
          <mxGeometry x="-1190" y="-380" width="30" height="20" as="geometry" />
        </mxCell>
        <mxCell id="KYpOYc-SYpL99tiq2sUf-3" value="" style="rounded=0;whiteSpace=wrap;html=1;fillColor=#fff2cc;strokeColor=#d6b656;" vertex="1" parent="1">
          <mxGeometry x="-1190" y="-360" width="30" height="20" as="geometry" />
        </mxCell>
        <mxCell id="KYpOYc-SYpL99tiq2sUf-4" value="" style="rounded=0;whiteSpace=wrap;html=1;fillColor=#f8cecc;strokeColor=#b85450;" vertex="1" parent="1">
          <mxGeometry x="-1190" y="-340" width="30" height="20" as="geometry" />
        </mxCell>
        <mxCell id="KYpOYc-SYpL99tiq2sUf-6" value="" style="endArrow=none;html=1;rounded=0;edgeStyle=orthogonalEdgeStyle;entryX=0.5;entryY=1;entryDx=0;entryDy=0;" edge="1" parent="1" target="KYpOYc-SYpL99tiq2sUf-4">
          <mxGeometry width="50" height="50" relative="1" as="geometry">
            <mxPoint x="-1200" y="-220" as="sourcePoint" />
            <mxPoint x="-1150" y="-270" as="targetPoint" />
            <Array as="points">
              <mxPoint x="-1175" y="-220" />
            </Array>
          </mxGeometry>
        </mxCell>
        <mxCell id="KYpOYc-SYpL99tiq2sUf-7" value="hub" style="rounded=0;whiteSpace=wrap;html=1;" vertex="1" parent="1">
          <mxGeometry x="-1120" y="-240" width="40" height="80" as="geometry" />
        </mxCell>
        <mxCell id="KYpOYc-SYpL99tiq2sUf-11" style="edgeStyle=orthogonalEdgeStyle;rounded=0;orthogonalLoop=1;jettySize=auto;html=1;entryX=0.975;entryY=0.913;entryDx=0;entryDy=0;entryPerimeter=0;" edge="1" parent="1" source="KYpOYc-SYpL99tiq2sUf-10" target="KYpOYc-SYpL99tiq2sUf-7">
          <mxGeometry relative="1" as="geometry" />
        </mxCell>
        <mxCell id="KYpOYc-SYpL99tiq2sUf-10" value="" style="rounded=0;whiteSpace=wrap;html=1;fillColor=#dae8fc;strokeColor=#6c8ebf;" vertex="1" parent="1">
          <mxGeometry x="-920" y="-320" width="620" height="560" as="geometry" />
        </mxCell>
        <mxCell id="KYpOYc-SYpL99tiq2sUf-13" value="ethernet" style="rounded=0;whiteSpace=wrap;html=1;" vertex="1" parent="1">
          <mxGeometry x="-920" y="-50" width="120" height="30" as="geometry" />
        </mxCell>
        <mxCell id="KYpOYc-SYpL99tiq2sUf-14" value="NetX&amp;nbsp;&lt;br&gt;Ethernet/IP" style="rounded=0;whiteSpace=wrap;html=1;" vertex="1" parent="1">
          <mxGeometry x="-920" width="120" height="60" as="geometry" />
        </mxCell>
        <mxCell id="KYpOYc-SYpL99tiq2sUf-15" value="" style="rounded=0;whiteSpace=wrap;html=1;" vertex="1" parent="1">
          <mxGeometry x="-1400" y="40" width="160" height="230" as="geometry" />
        </mxCell>
        <mxCell id="KYpOYc-SYpL99tiq2sUf-28" style="edgeStyle=orthogonalEdgeStyle;rounded=0;orthogonalLoop=1;jettySize=auto;html=1;entryX=0;entryY=0.25;entryDx=0;entryDy=0;" edge="1" parent="1" source="KYpOYc-SYpL99tiq2sUf-16" target="KYpOYc-SYpL99tiq2sUf-14">
          <mxGeometry relative="1" as="geometry" />
        </mxCell>
        <mxCell id="KYpOYc-SYpL99tiq2sUf-17" value="" style="rounded=0;whiteSpace=wrap;html=1;fillColor=#f8cecc;strokeColor=#b85450;" vertex="1" parent="1">
          <mxGeometry x="-1450" y="90" width="30" height="20" as="geometry" />
        </mxCell>
        <mxCell id="KYpOYc-SYpL99tiq2sUf-26" style="edgeStyle=orthogonalEdgeStyle;rounded=0;orthogonalLoop=1;jettySize=auto;html=1;entryX=0.017;entryY=0.367;entryDx=0;entryDy=0;entryPerimeter=0;" edge="1" parent="1" source="KYpOYc-SYpL99tiq2sUf-18" target="KYpOYc-SYpL99tiq2sUf-22">
          <mxGeometry relative="1" as="geometry">
            <Array as="points">
              <mxPoint x="-1110" y="102" />
              <mxPoint x="-1110" y="102" />
            </Array>
          </mxGeometry>
        </mxCell>
        <mxCell id="KYpOYc-SYpL99tiq2sUf-18" value="" style="rounded=0;whiteSpace=wrap;html=1;fillColor=#e1d5e7;strokeColor=#9673a6;" vertex="1" parent="1">
          <mxGeometry x="-1210" y="90" width="30" height="20" as="geometry" />
        </mxCell>
        <mxCell id="KYpOYc-SYpL99tiq2sUf-30" value="" style="ellipse;whiteSpace=wrap;html=1;aspect=fixed;fillColor=#050505;" vertex="1" parent="1">
          <mxGeometry x="-1355" y="70" width="25" height="25" as="geometry" />
        </mxCell>
        <mxCell id="KYpOYc-SYpL99tiq2sUf-19" value="" style="shape=link;html=1;rounded=0;edgeStyle=orthogonalEdgeStyle;entryX=0;entryY=0.5;entryDx=0;entryDy=0;fillColor=#f8cecc;strokeColor=#b85450;" edge="1" parent="1" target="KYpOYc-SYpL99tiq2sUf-18">
          <mxGeometry width="100" relative="1" as="geometry">
            <mxPoint x="-1420" y="99.5" as="sourcePoint" />
            <mxPoint x="-1320" y="99.5" as="targetPoint" />
          </mxGeometry>
        </mxCell>
        <mxCell id="KYpOYc-SYpL99tiq2sUf-22" value="Advantech IO" style="rounded=0;whiteSpace=wrap;html=1;" vertex="1" parent="1">
          <mxGeometry x="-920" y="80" width="120" height="60" as="geometry" />
        </mxCell>
        <mxCell id="KYpOYc-SYpL99tiq2sUf-24" style="edgeStyle=orthogonalEdgeStyle;rounded=0;orthogonalLoop=1;jettySize=auto;html=1;" edge="1" parent="1" source="KYpOYc-SYpL99tiq2sUf-23" target="KYpOYc-SYpL99tiq2sUf-22">
          <mxGeometry relative="1" as="geometry">
            <Array as="points">
              <mxPoint x="-1187" y="130" />
            </Array>
          </mxGeometry>
        </mxCell>
        <mxCell id="KYpOYc-SYpL99tiq2sUf-23" value="" style="shape=cylinder3;whiteSpace=wrap;html=1;boundedLbl=1;backgroundOutline=1;size=15;direction=south;fillColor=#dae8fc;strokeColor=#6c8ebf;" vertex="1" parent="1">
          <mxGeometry x="-1215" y="250" width="55" height="40" as="geometry" />
        </mxCell>
        <mxCell id="KYpOYc-SYpL99tiq2sUf-27" value="Scan start" style="text;html=1;align=center;verticalAlign=middle;resizable=0;points=[];autosize=1;strokeColor=none;fillColor=none;" vertex="1" parent="1">
          <mxGeometry x="-1115" y="80" width="70" height="20" as="geometry" />
        </mxCell>
        <mxCell id="KYpOYc-SYpL99tiq2sUf-29" value="IO 1001000110" style="text;html=1;align=center;verticalAlign=middle;resizable=0;points=[];autosize=1;strokeColor=none;fillColor=none;" vertex="1" parent="1">
          <mxGeometry x="-1180" y="50" width="100" height="20" as="geometry" />
        </mxCell>
        <mxCell id="KYpOYc-SYpL99tiq2sUf-16" value="SICK" style="rounded=1;whiteSpace=wrap;html=1;fillColor=#fff2cc;strokeColor=#d6b656;" vertex="1" parent="1">
          <mxGeometry x="-1420" y="60" width="210" height="20" as="geometry" />
        </mxCell>
        <mxCell id="KYpOYc-SYpL99tiq2sUf-31" value="" style="shape=flexArrow;endArrow=classic;html=1;rounded=0;edgeStyle=orthogonalEdgeStyle;width=11;endSize=6.33;" edge="1" parent="1">
          <mxGeometry width="50" height="50" relative="1" as="geometry">
            <mxPoint x="-1317" y="40" as="sourcePoint" />
            <mxPoint x="-1317.5" y="-50" as="targetPoint" />
            <Array as="points">
              <mxPoint x="-1317" y="40" />
              <mxPoint x="-1317" y="-5" />
            </Array>
          </mxGeometry>
        </mxCell>
        <mxCell id="KYpOYc-SYpL99tiq2sUf-33" value="A/B Encoder" style="text;html=1;align=center;verticalAlign=middle;resizable=0;points=[];autosize=1;strokeColor=none;fillColor=none;" vertex="1" parent="1">
          <mxGeometry x="-1120" y="110" width="80" height="20" as="geometry" />
        </mxCell>
        <mxCell id="KYpOYc-SYpL99tiq2sUf-34" value="splitter" style="rounded=0;whiteSpace=wrap;html=1;fillColor=#FAFAFA;" vertex="1" parent="1">
          <mxGeometry x="-1210" y="170" width="50" height="30" as="geometry" />
        </mxCell>
        <mxCell id="KYpOYc-SYpL99tiq2sUf-36" value="PC Platform" style="text;html=1;align=center;verticalAlign=middle;resizable=0;points=[];autosize=1;strokeColor=none;fillColor=none;" vertex="1" parent="1">
          <mxGeometry x="-920" y="-320" width="80" height="20" as="geometry" />
        </mxCell>
        <mxCell id="KYpOYc-SYpL99tiq2sUf-37" value="Inspection alive" style="text;html=1;align=center;verticalAlign=middle;resizable=0;points=[];autosize=1;strokeColor=none;fillColor=none;" vertex="1" parent="1">
          <mxGeometry x="-1165" y="-380" width="100" height="20" as="geometry" />
        </mxCell>
        <mxCell id="KYpOYc-SYpL99tiq2sUf-39" value="Inspection dead" style="text;html=1;align=center;verticalAlign=middle;resizable=0;points=[];autosize=1;strokeColor=none;fillColor=none;" vertex="1" parent="1">
          <mxGeometry x="-1165" y="-340" width="100" height="20" as="geometry" />
        </mxCell>
        <mxCell id="KYpOYc-SYpL99tiq2sUf-40" value="Glass NOK" style="text;html=1;align=center;verticalAlign=middle;resizable=0;points=[];autosize=1;strokeColor=none;fillColor=none;" vertex="1" parent="1">
          <mxGeometry x="-1165" y="-360" width="80" height="20" as="geometry" />
        </mxCell>
      </root>
    </mxGraphModel>
  </diagram>
</mxfile>
